<svg width="40" height="42" viewBox="0 0 40 42" fill="none" xmlns="http://www.w3.org/2000/svg">
<path d="M32.6469 6.30255L28.7748 7.44319C28.7748 7.44319 26.8133 4.66199 25.2633 2.49728C23.5861 2.04088 21.8218 1.7959 20 1.7959C8.95428 1.7959 0 10.7502 0 21.7959C0 22.6225 0.0510199 23.4372 0.148407 24.2376C0.148407 24.2376 5.85725 33.7834 20.1336 33.7834C34.4099 33.7834 39.8516 24.2375 39.8516 24.2375C39.9491 23.4372 40 22.6225 40 21.7958C40 15.548 37.1346 9.9701 32.6469 6.30255Z" fill="#02C0FC"/>
<path d="M36.3519 25.343C34.3079 25.343 34.3079 24.2002 32.2639 24.2002C30.2199 24.2002 30.2199 25.343 28.176 25.343C26.1319 25.343 26.1319 24.2002 24.0879 24.2002C22.044 24.2002 22.044 25.343 20 25.343V35.954L36.5755 32.9901C38.3063 30.4323 39.46 27.4523 39.8515 24.2371C38.3738 24.4317 38.1778 25.343 36.3519 25.343Z" fill="#27A6FF"/>
<path d="M15.9121 24.2002C13.8681 24.2002 13.8681 25.343 11.824 25.343C9.78001 25.343 9.78001 24.2002 7.73611 24.2002C5.69205 24.2002 5.69205 25.343 3.64808 25.343C1.82222 25.343 1.62622 24.4317 0.148438 24.2371C0.539862 27.4523 1.69356 30.4324 3.42449 32.9901L20 35.9539V25.343C17.956 25.343 17.956 24.2002 15.9121 24.2002Z" fill="#1D8DF2"/>
<path d="M16.5104 24.334V24.7584C16.5104 26.27 14.3524 27.4097 12.2219 28.1668C12.2219 28.1668 11.3085 35.9491 15.7575 34.2349C20.2064 32.5206 21.594 25.0101 21.594 25.0101L16.5104 24.334Z" fill="#FC9460"/>
<path d="M8.75104 29.144C8.34108 29.2338 8.09357 29.2791 8.09357 29.2791C7.06812 29.476 4.81736 30.1922 3.53501 32.7569C3.49721 32.8325 3.46032 32.9103 3.42432 32.99C4.87491 35.1337 6.73073 36.9805 8.8814 38.4215L11.3081 33.7828L8.75104 29.144Z" fill="#FC9460"/>
<path d="M27.7785 28.1668C25.6479 27.4098 23.49 26.27 23.49 24.7585C23.49 24.4719 23.49 24.4053 23.49 24.3341L21.3493 23.9902L19.9472 26.1414C19.7823 27.6776 19.1037 31.0708 16.3096 33.066C17.3106 36.9989 19.9472 36.8881 19.9472 36.8881C28.1776 35.3371 27.7785 28.1668 27.7785 28.1668Z" fill="#FFAA7B"/>
<path d="M36.4651 32.7569C35.1827 30.1922 32.9319 29.476 31.9064 29.2791C31.9064 29.2791 31.6589 29.2339 31.2489 29.144L28.4512 33.5272L31.1187 38.4215C33.2692 36.9805 35.1251 35.1337 36.5757 32.99C36.5397 32.9103 36.5028 32.8326 36.4651 32.7569Z" fill="#FFAA7B"/>
<path d="M12.1382 28.006C11.8889 27.5163 11.3223 27.2785 10.7964 27.4379L9.57767 27.8072C9.12461 27.9445 8.80519 28.3477 8.77212 28.8199C8.58102 31.5471 8.69057 35.1564 8.88143 38.4215C10.1112 39.2455 11.4377 39.9359 12.84 40.4736L16.3093 37.243V33.0657C13.979 31.0757 12.755 29.2176 12.1382 28.006Z" fill="#6AD9FB"/>
<path d="M19.9999 35.9541C19.3738 35.4181 18.6623 34.8639 17.8532 34.2787C17.2906 33.8719 16.778 33.4662 16.3092 33.0659C13.3111 35.2068 12.0471 37.164 12.84 40.4738C13.8973 40.8793 14.9976 41.1981 16.1324 41.4205L20.1336 39.5955L19.9999 35.9541Z" fill="#ADE9F7"/>
<path d="M30.4221 27.8072L29.2034 27.4379C28.6775 27.2785 28.1108 27.5163 27.8616 28.006C27.1208 29.4614 25.5051 31.8493 22.1465 34.2784C18.5232 36.8989 16.8435 38.9016 16.1313 41.42C17.3831 41.6654 18.6761 41.7953 19.9998 41.7953C24.1146 41.7953 27.9387 40.552 31.1183 38.4214C31.3092 35.1563 31.4187 31.547 31.2276 28.8199C31.1945 28.3477 30.8751 27.9445 30.4221 27.8072Z" fill="#E8F8FC"/>
<path d="M11.2559 5.86386L20.0001 6.92907V0C16.386 0 13.1914 2.31712 11.2559 5.86386Z" fill="#FFC242"/>
<path d="M20 0C20 0 17.6273 2.41132 18.8136 5.35007C18.8136 5.35007 18.8098 5.35358 18.8043 5.35872L23.9307 7.56213L28.7442 5.86386C26.8086 2.31712 23.614 0 20 0Z" fill="#FEF156"/>
<path d="M18.8044 5.35889C16.017 5.39938 13.4363 5.58011 11.2558 5.86402C10.7325 6.82279 10.301 7.87102 9.97852 8.98807C13.9292 10.4904 20.424 9.35338 20.424 9.35338L18.8044 5.35889Z" fill="#FC753F"/>
<path d="M26.9549 9.20981L25.8181 5.56528C24.0215 5.42675 22.058 5.3501 19.9998 5.3501C19.5974 5.3501 19.1987 5.35304 18.8041 5.35875C18.6815 5.47369 17.2779 6.84943 18.727 8.29864C18.727 8.29864 18.7267 8.2988 18.7266 8.2988H18.7272C20.2988 9.86981 26.9549 9.20981 26.9549 9.20981Z" fill="#FEA53D"/>
<path d="M18.7271 8.29883C10.7617 8.42193 4.49902 9.69016 4.49902 11.2367C4.49902 12.767 10.6314 14.0249 18.4781 14.1704L20.8322 11.0515L18.7271 8.29883Z" fill="#FFC242"/>
<path d="M31.3141 9.22199V6.9292L25.1269 8.45424C23.5221 8.34731 21.7971 8.28902 20.0002 8.28902C19.5715 8.28902 19.1471 8.29245 18.7272 8.29898C18.713 8.30527 16.7493 9.17661 18.2225 10.6498C18.2225 10.6498 18.1904 12.1294 18.478 14.1705C18.9788 14.1798 19.4865 14.1846 20.0001 14.1846C28.5612 14.1846 35.5013 12.8649 35.5013 11.2368C35.5014 10.4576 33.9107 9.74901 31.3141 9.22199Z" fill="#FEF156"/>
<path d="M20 10.6421C17.0698 10.6421 14.3451 10.7018 12.0754 10.8041C11.0247 10.8516 10.1337 11.605 9.92655 12.6362C9.6259 14.1331 9.49236 15.8044 9.59342 17.669C9.65521 18.8051 9.8086 19.9164 10.1059 21.0399C10.2181 21.4635 10.5078 21.8132 10.894 21.986L10.9373 22.0053C13.1004 22.9669 15.448 23.4429 17.8153 23.4429H22.2868C24.6324 23.4429 26.9519 22.9491 29.0933 21.9916C29.0975 21.9897 29.1018 21.9879 29.106 21.9859C29.4922 21.8131 29.7819 21.4634 29.894 21.0398C30.1908 19.9186 30.3453 18.8031 30.4065 17.669C30.5076 15.8042 30.374 14.133 30.0734 12.6361C29.8663 11.6049 28.9753 10.8515 27.9245 10.804C25.6549 10.7018 22.9302 10.6421 20 10.6421Z" fill="#1D2E79"/>
<path d="M13.2249 13.2417C11.7971 13.4776 11.3078 14.7489 11.6828 15.7374C11.6852 15.744 11.6877 15.7505 11.6901 15.7569C11.7741 15.9804 11.8283 16.2063 11.8529 16.4328C11.9052 16.9164 12.1645 17.6201 13.2244 17.6275L14.3013 15.7044L13.2249 13.2417Z" fill="#FC9460"/>
<path d="M26.7753 13.2417L26.7761 13.2425L25.4717 15.404L26.7757 17.6275C27.8355 17.62 28.0949 16.9164 28.1472 16.4327C28.1717 16.2062 28.2259 15.9803 28.3099 15.7569C28.3124 15.7504 28.3148 15.7439 28.3173 15.7373C28.6949 14.7416 28.197 13.4769 26.7753 13.2417Z" fill="#FFAA7B"/>
<path d="M21.5935 16.1707L18.2221 10.6494C17.1504 11.7554 15.5416 12.8585 13.224 13.2424C12.8624 14.5314 13.0157 16.4975 13.1769 17.4271C13.6344 19.4307 14.2972 21.1778 15.1464 22.62C16.0086 24.084 17.3142 25.2227 18.9222 25.9129C19.265 26.0601 19.6318 26.1363 19.9997 26.1434C20.3676 26.1364 20.7344 26.0601 21.0773 25.9129C21.9866 25.5226 22.799 24.9886 23.4894 24.3338L21.5935 16.1707Z" fill="#FFAA7B"/>
<path d="M26.7757 13.2425C24.458 12.8586 22.8492 11.7555 21.7775 10.6495C21.195 10.6446 20.6018 10.6421 19.9999 10.6421C19.3979 10.6421 18.8047 10.6446 18.2223 10.6495C18.2223 10.6495 18.0114 20.3377 23.4896 24.3339C24.0202 23.8307 24.4787 23.2562 24.8533 22.6201C25.7025 21.1779 26.3653 19.4308 26.8228 17.4272C26.984 16.4976 27.1372 14.5315 26.7757 13.2425Z" fill="#FFC7AB"/>
<path d="M15.8785 15.1126C15.2496 15.7119 16.1581 16.6294 16.808 16.0549C17.0524 15.8388 17.4245 15.8389 17.6688 16.0549C18.3181 16.6288 19.2283 15.7128 18.5983 15.1126C17.8415 14.3913 16.6362 14.3905 15.8785 15.1126Z" fill="#EA7E42"/>
<path d="M21.4014 15.1126C20.7726 15.7119 21.681 16.6294 22.3309 16.0549C22.5754 15.8388 22.9475 15.8389 23.1918 16.0549C23.8411 16.6288 24.7512 15.7128 24.1213 15.1126C23.3644 14.3913 22.1592 14.3905 21.4014 15.1126Z" fill="#EA7E42"/>
<path d="M18.6737 19.6807C18.1648 19.6807 17.7815 20.0084 17.865 20.3674C18.1215 21.4693 18.9802 22.2792 20.0001 22.2792C21.02 22.2792 21.8788 21.4692 22.1353 20.3674C22.2189 20.0084 21.8355 19.6807 21.3266 19.6807H18.6737Z" fill="#FE3D97"/>
<path d="M30.8173 10.3469C30.8173 11.4749 29.9028 12.3894 28.7749 12.3894C27.6469 12.3894 26.7324 11.4749 26.7324 10.3469C26.7324 9.21893 27.6469 7.31104 28.7749 7.31104C29.9028 7.31104 30.8173 9.21893 30.8173 10.3469Z" fill="#FE3D97"/>
<path d="M25.7392 5.26855C26.8672 5.26855 28.7751 6.18299 28.7751 7.31098C28.7751 8.43897 26.8673 9.35341 25.7392 9.35341C24.6112 9.35341 23.6968 8.43897 23.6968 7.31098C23.6968 6.18299 24.6112 5.26855 25.7392 5.26855Z" fill="#FE3D97"/>
<path d="M30.8173 4.27485C30.8173 5.40284 29.9028 7.31074 28.7749 7.31074C27.6469 7.31074 26.7324 5.40292 26.7324 4.27485C26.7324 3.14686 27.6469 2.23242 28.7749 2.23242C29.9028 2.23242 30.8173 3.14686 30.8173 4.27485Z" fill="#FD77A6"/>
<path d="M31.8108 5.26855C32.9388 5.26855 33.8532 6.18299 33.8532 7.31098C33.8532 8.43897 32.9388 9.35341 31.8108 9.35341C30.6828 9.35341 28.7749 8.43897 28.7749 7.31098C28.7749 6.18299 30.6828 5.26855 31.8108 5.26855Z" fill="#FD77A6"/>
<path d="M28.7748 9.17605C29.7321 9.17605 30.5081 8.40003 30.5081 7.44276C30.5081 6.48549 29.7321 5.70947 28.7748 5.70947C27.8175 5.70947 27.0415 6.48549 27.0415 7.44276C27.0415 8.40003 27.8175 9.17605 28.7748 9.17605Z" fill="#E8F8FC"/>
</svg>
