<svg width="40" height="40" viewBox="0 0 40 40" fill="none" xmlns="http://www.w3.org/2000/svg">
    <path d="M36.6667 4H33.3333V2.66667C33.3333 1.95942 33.0524 1.28115 32.5523 0.781049C32.0522 0.280952 31.3739 0 30.6667 0C29.9594 0 29.2811 0.280952 28.781 0.781049C28.281 1.28115 28 1.95942 28 2.66667V4H22.6667V2.66667C22.6667 1.95942 22.3857 1.28115 21.8856 0.781049C21.3855 0.280952 20.7072 0 20 0C19.2928 0 18.6145 0.280952 18.1144 0.781049C17.6143 1.28115 17.3333 1.95942 17.3333 2.66667V4H12V2.66667C12 1.95942 11.719 1.28115 11.219 0.781049C10.7189 0.280952 10.0406 0 9.33333 0C8.62609 0 7.94781 0.280952 7.44772 0.781049C6.94762 1.28115 6.66667 1.95942 6.66667 2.66667V4H3.33333C2.44928 4 1.60143 4.35119 0.976311 4.97631C0.351189 5.60143 0 6.44928 0 7.33333V34C0 34.8841 0.351189 35.7319 0.976311 36.357C1.60143 36.9821 2.44928 37.3333 3.33333 37.3333H22C22.1768 37.3333 22.3464 37.2631 22.4714 37.1381C22.5964 37.013 22.6667 36.8435 22.6667 36.6667C22.6667 36.4899 22.5964 36.3203 22.4714 36.1953C22.3464 36.0702 22.1768 36 22 36H3.33333C2.80339 35.9984 2.2956 35.7872 1.92087 35.4125C1.54614 35.0377 1.33492 34.5299 1.33333 34V13.3333H38.6667V24.6667C38.6667 24.8435 38.7369 25.013 38.8619 25.1381C38.987 25.2631 39.1565 25.3333 39.3333 25.3333C39.5101 25.3333 39.6797 25.2631 39.8047 25.1381C39.9298 25.013 40 24.8435 40 24.6667V7.33333C40 6.44928 39.6488 5.60143 39.0237 4.97631C38.3986 4.35119 37.5507 4 36.6667 4ZM29.3333 2.66667C29.3333 2.31304 29.4738 1.97391 29.7239 1.72386C29.9739 1.47381 30.313 1.33333 30.6667 1.33333C31.0203 1.33333 31.3594 1.47381 31.6095 1.72386C31.8595 1.97391 32 2.31304 32 2.66667V6.66667C32 7.02029 31.8595 7.35943 31.6095 7.60948C31.3594 7.85952 31.0203 8 30.6667 8C30.313 8 29.9739 7.85952 29.7239 7.60948C29.4738 7.35943 29.3333 7.02029 29.3333 6.66667V2.66667ZM18.6667 2.66667C18.6667 2.31304 18.8071 1.97391 19.0572 1.72386C19.3072 1.47381 19.6464 1.33333 20 1.33333C20.3536 1.33333 20.6928 1.47381 20.9428 1.72386C21.1929 1.97391 21.3333 2.31304 21.3333 2.66667V6.66667C21.3333 7.02029 21.1929 7.35943 20.9428 7.60948C20.6928 7.85952 20.3536 8 20 8C19.6464 8 19.3072 7.85952 19.0572 7.60948C18.8071 7.35943 18.6667 7.02029 18.6667 6.66667V2.66667ZM8 2.66667C8 2.31304 8.14048 1.97391 8.39052 1.72386C8.64057 1.47381 8.97971 1.33333 9.33333 1.33333C9.68696 1.33333 10.0261 1.47381 10.2761 1.72386C10.5262 1.97391 10.6667 2.31304 10.6667 2.66667V6.66667C10.6667 7.02029 10.5262 7.35943 10.2761 7.60948C10.0261 7.85952 9.68696 8 9.33333 8C8.97971 8 8.64057 7.85952 8.39052 7.60948C8.14048 7.35943 8 7.02029 8 6.66667V2.66667ZM38.6667 12H1.33333V7.33333C1.33492 6.80339 1.54614 6.2956 1.92087 5.92087C2.2956 5.54614 2.80339 5.33492 3.33333 5.33333H6.66667V6.66667C6.66667 7.37391 6.94762 8.05219 7.44772 8.55228C7.94781 9.05238 8.62609 9.33333 9.33333 9.33333C10.0406 9.33333 10.7189 9.05238 11.219 8.55228C11.719 8.05219 12 7.37391 12 6.66667V5.33333H17.3333V6.66667C17.3333 7.37391 17.6143 8.05219 18.1144 8.55228C18.6145 9.05238 19.2928 9.33333 20 9.33333C20.7072 9.33333 21.3855 9.05238 21.8856 8.55228C22.3857 8.05219 22.6667 7.37391 22.6667 6.66667V5.33333H28V6.66667C28 7.37391 28.281 8.05219 28.781 8.55228C29.2811 9.05238 29.9594 9.33333 30.6667 9.33333C31.3739 9.33333 32.0522 9.05238 32.5523 8.55228C33.0524 8.05219 33.3333 7.37391 33.3333 6.66667V5.33333H36.6667C37.1966 5.33492 37.7044 5.54614 38.0791 5.92087C38.4539 6.2956 38.6651 6.80339 38.6667 7.33333V12Z" fill="#fff"/>
    <path d="M18.6663 18.0003C18.6663 17.6467 18.5259 17.3076 18.2758 17.0575C18.0258 16.8075 17.6866 16.667 17.333 16.667H14.6663C14.3127 16.667 13.9736 16.8075 13.7235 17.0575C13.4735 17.3076 13.333 17.6467 13.333 18.0003V20.0003C13.333 20.3539 13.4735 20.6931 13.7235 20.9431C13.9736 21.1932 14.3127 21.3337 14.6663 21.3337H17.333C17.6866 21.3337 18.0258 21.1932 18.2758 20.9431C18.5259 20.6931 18.6663 20.3539 18.6663 20.0003V18.0003ZM14.6663 20.0003V18.0003H17.333V20.0003H14.6663Z" fill="#fff"/>
    <path d="M10.6663 18.0003C10.6663 17.6467 10.5259 17.3076 10.2758 17.0575C10.0258 16.8075 9.68663 16.667 9.33301 16.667H6.66634C6.31272 16.667 5.97358 16.8075 5.72353 17.0575C5.47348 17.3076 5.33301 17.6467 5.33301 18.0003V20.0003C5.33301 20.3539 5.47348 20.6931 5.72353 20.9431C5.97358 21.1932 6.31272 21.3337 6.66634 21.3337H9.33301C9.68663 21.3337 10.0258 21.1932 10.2758 20.9431C10.5259 20.6931 10.6663 20.3539 10.6663 20.0003V18.0003ZM6.66634 20.0003V18.0003H9.33301V20.0003H6.66634Z" fill="#fff"/>
    <path d="M33.333 21.3337C33.6866 21.3337 34.0258 21.1932 34.2758 20.9431C34.5259 20.6931 34.6663 20.3539 34.6663 20.0003V18.0003C34.6663 17.6467 34.5259 17.3076 34.2758 17.0575C34.0258 16.8075 33.6866 16.667 33.333 16.667H30.6663C30.3127 16.667 29.9736 16.8075 29.7235 17.0575C29.4735 17.3076 29.333 17.6467 29.333 18.0003V20.0003C29.333 20.3539 29.4735 20.6931 29.7235 20.9431C29.9736 21.1932 30.3127 21.3337 30.6663 21.3337H33.333ZM30.6663 18.0003H33.333V20.0003H30.6663V18.0003Z" fill="#fff"/>
    <path d="M18.6663 24.0003C18.6663 23.6467 18.5259 23.3076 18.2758 23.0575C18.0258 22.8075 17.6866 22.667 17.333 22.667H14.6663C14.3127 22.667 13.9736 22.8075 13.7235 23.0575C13.4735 23.3076 13.333 23.6467 13.333 24.0003V26.0003C13.333 26.3539 13.4735 26.6931 13.7235 26.9431C13.9736 27.1932 14.3127 27.3337 14.6663 27.3337H17.333C17.6866 27.3337 18.0258 27.1932 18.2758 26.9431C18.5259 26.6931 18.6663 26.3539 18.6663 26.0003V24.0003ZM14.6663 26.0003V24.0003H17.333V26.0003H14.6663Z" fill="#fff"/>
    <path d="M10.6663 24.0003C10.6663 23.6467 10.5259 23.3076 10.2758 23.0575C10.0258 22.8075 9.68663 22.667 9.33301 22.667H6.66634C6.31272 22.667 5.97358 22.8075 5.72353 23.0575C5.47348 23.3076 5.33301 23.6467 5.33301 24.0003V26.0003C5.33301 26.3539 5.47348 26.6931 5.72353 26.9431C5.97358 27.1932 6.31272 27.3337 6.66634 27.3337H9.33301C9.68663 27.3337 10.0258 27.1932 10.2758 26.9431C10.5259 26.6931 10.6663 26.3539 10.6663 26.0003V24.0003ZM6.66634 26.0003V24.0003H9.33301V26.0003H6.66634Z" fill="#fff"/>
    <path d="M17.333 28.667H14.6663C14.3127 28.667 13.9736 28.8075 13.7235 29.0575C13.4735 29.3076 13.333 29.6467 13.333 30.0003V32.0003C13.333 32.3539 13.4735 32.6931 13.7235 32.9431C13.9736 33.1932 14.3127 33.3337 14.6663 33.3337H17.333C17.6866 33.3337 18.0258 33.1932 18.2758 32.9431C18.5259 32.6931 18.6663 32.3539 18.6663 32.0003V30.0003C18.6663 29.6467 18.5259 29.3076 18.2758 29.0575C18.0258 28.8075 17.6866 28.667 17.333 28.667ZM14.6663 32.0003V30.0003H17.333V32.0003H14.6663Z" fill="#fff"/>
    <path d="M22.6663 21.3337H25.333C25.6866 21.3337 26.0258 21.1932 26.2758 20.9431C26.5259 20.6931 26.6663 20.3539 26.6663 20.0003V18.0003C26.6663 17.6467 26.5259 17.3076 26.2758 17.0575C26.0258 16.8075 25.6866 16.667 25.333 16.667H22.6663C22.3127 16.667 21.9736 16.8075 21.7235 17.0575C21.4735 17.3076 21.333 17.6467 21.333 18.0003V20.0003C21.333 20.3539 21.4735 20.6931 21.7235 20.9431C21.9736 21.1932 22.3127 21.3337 22.6663 21.3337ZM22.6663 18.0003H25.333V20.0003H22.6663V18.0003Z" fill="#fff"/>
    <path d="M21.333 26.0003C21.333 26.3539 21.4735 26.6931 21.7235 26.9431C21.9736 27.1932 22.3127 27.3337 22.6663 27.3337C22.8432 27.3337 23.0127 27.2634 23.1377 27.1384C23.2628 27.0134 23.333 26.8438 23.333 26.667C23.333 26.4902 23.2628 26.3206 23.1377 26.1956C23.0127 26.0706 22.8432 26.0003 22.6663 26.0003V24.0003H25.333C25.5098 24.0003 25.6794 23.9301 25.8044 23.8051C25.9294 23.68 25.9997 23.5105 25.9997 23.3337C25.9997 23.1568 25.9294 22.9873 25.8044 22.8623C25.6794 22.7372 25.5098 22.667 25.333 22.667H22.6663C22.3127 22.667 21.9736 22.8075 21.7235 23.0575C21.4735 23.3076 21.333 23.6467 21.333 24.0003V26.0003Z" fill="#fff"/>
    <path d="M9.33301 28.667H6.66634C6.31272 28.667 5.97358 28.8075 5.72353 29.0575C5.47348 29.3076 5.33301 29.6467 5.33301 30.0003V32.0003C5.33301 32.3539 5.47348 32.6931 5.72353 32.9431C5.97358 33.1932 6.31272 33.3337 6.66634 33.3337H9.33301C9.68663 33.3337 10.0258 33.1932 10.2758 32.9431C10.5259 32.6931 10.6663 32.3539 10.6663 32.0003V30.0003C10.6663 29.6467 10.5259 29.3076 10.2758 29.0575C10.0258 28.8075 9.68663 28.667 9.33301 28.667ZM6.66634 32.0003V30.0003H9.33301V32.0003H6.66634Z" fill="#fff"/>
    <path d="M31.3337 22.667C29.6196 22.667 27.9439 23.1753 26.5187 24.1276C25.0935 25.0799 23.9827 26.4334 23.3267 28.0171C22.6707 29.6007 22.4991 31.3433 22.8335 33.0244C23.1679 34.7056 23.9934 36.2499 25.2054 37.4619C26.4175 38.674 27.9617 39.4994 29.6429 39.8338C31.324 40.1682 33.0666 39.9966 34.6503 39.3406C36.2339 38.6847 37.5874 37.5738 38.5397 36.1486C39.492 34.7234 40.0003 33.0478 40.0003 31.3337C39.9977 29.0359 39.0837 26.8331 37.459 25.2083C35.8343 23.5836 33.6314 22.6696 31.3337 22.667ZM31.3337 38.667C29.8833 38.667 28.4654 38.2369 27.2595 37.4311C26.0535 36.6253 25.1136 35.48 24.5585 34.14C24.0035 32.8 23.8583 31.3255 24.1412 29.903C24.4242 28.4805 25.1226 27.1738 26.1482 26.1482C27.1738 25.1226 28.4805 24.4242 29.903 24.1412C31.3255 23.8583 32.8 24.0035 34.14 24.5585C35.48 25.1136 36.6253 26.0535 37.4311 27.2595C38.2369 28.4654 38.667 29.8833 38.667 31.3337C38.6647 33.2779 37.8914 35.1418 36.5166 36.5166C35.1418 37.8913 33.2779 38.6647 31.3337 38.667Z" fill="#fff"/>
    <path d="M35.1855 28.5377L30.0001 33.7231L27.6435 31.3657C27.5177 31.2443 27.3493 31.1771 27.1745 31.1786C26.9997 31.1801 26.8325 31.2502 26.7089 31.3738C26.5853 31.4975 26.5152 31.6647 26.5137 31.8395C26.5122 32.0143 26.5794 32.1827 26.7008 32.3084L29.5288 35.1371C29.6538 35.262 29.8234 35.3323 30.0001 35.3323C30.1769 35.3323 30.3465 35.262 30.4715 35.1371L36.1281 29.4804C36.2496 29.3547 36.3168 29.1863 36.3153 29.0115C36.3137 28.8367 36.2436 28.6695 36.12 28.5458C35.9964 28.4222 35.8292 28.3521 35.6544 28.3506C35.4796 28.3491 35.3112 28.4163 35.1855 28.5377Z" fill="#fff"/>
</svg>